<?xml version="1.0" encoding="utf-8"?>
<!-- Generator: Adobe Illustrator 16.0.0, SVG Export Plug-In . SVG Version: 6.00 Build 0)  -->
<!DOCTYPE svg PUBLIC "-//W3C//DTD SVG 1.1//EN" "http://www.w3.org/Graphics/SVG/1.1/DTD/svg11.dtd">
<svg version="1.1" id="value" xmlns="http://www.w3.org/2000/svg" xmlns:xlink="http://www.w3.org/1999/xlink" x="0px" y="0px"
	 width="100px" height="100px" viewBox="0 0 100 100" enable-background="new 0 0 100 100" xml:space="preserve">
<path d="M81.924,35.647c-0.64,0.01-1.152,0.534-1.148,1.174v1.424c-3.199,0.35-4.598,2.273-4.598,4.498
	c0,6.022,9.119,4.348,9.119,7.996c0,1.55-1.099,2.299-3.373,2.299c-1.568-0.046-3.049-0.731-4.098-1.899
	c-0.268-0.336-0.67-0.536-1.099-0.55c-0.743,0.011-1.335,0.622-1.325,1.364c0.004,0.242,0.073,0.479,0.2,0.686
	c1.21,1.695,3.099,2.78,5.173,2.973v1.399c-0.008,0.642,0.507,1.167,1.148,1.175c0.643,0.006,1.168-0.508,1.175-1.15
	c0-0.008,0-0.016,0-0.024v-1.399c3.348-0.324,5.097-2.123,5.097-4.872c0-6.246-9.119-4.723-9.119-7.996c0-1,0.773-1.974,2.848-1.974
	c1.291-0.012,2.539,0.461,3.498,1.324c0.276,0.312,0.66,0.508,1.074,0.549c0.738,0.006,1.342-0.586,1.35-1.324
	c-0.002-0.285-0.09-0.563-0.25-0.8c-1.129-1.333-2.754-2.145-4.497-2.248v-1.45c0.001-0.648-0.524-1.174-1.173-1.174
	C81.926,35.647,81.926,35.647,81.924,35.647z"/>
<path d="M25.781,79.688h48.438c1.727,0,3.125,1.398,3.125,3.125v3.125c0,1.727-1.398,3.125-3.125,3.125H25.781
	c-1.726,0-3.125-1.398-3.125-3.125v-3.125C22.656,81.086,24.055,79.688,25.781,79.688z"/>
<g>
	<path fill="none" d="M17.104,22.589L3.128,59.375h11.678h6.325H32.81L18.834,22.591C18.261,22.679,17.677,22.678,17.104,22.589z"/>
	<path fill="none" d="M81.166,22.591L67.19,59.375h29.682L82.896,22.589C82.322,22.678,81.739,22.679,81.166,22.591z"/>
	<path d="M99.793,58.266l-14.01-36.874c1.571-1.176,2.496-3.023,2.498-4.986c0-0.863-0.699-1.563-1.563-1.563
		s-1.563,0.7-1.563,1.563c-0.003,0.708-0.249,1.395-0.697,1.943c-1.08-1.341-3.043-1.553-4.383-0.472
		c-0.175,0.14-0.333,0.298-0.473,0.472c-0.448-0.549-0.694-1.235-0.697-1.943c0-0.863-0.699-1.563-1.563-1.563H54.619
		c-0.43-2.551-2.846-4.271-5.397-3.841c-1.968,0.332-3.509,1.873-3.841,3.841H22.656c-0.863,0-1.563,0.7-1.563,1.563
		c-0.003,0.708-0.249,1.395-0.697,1.943c-1.081-1.341-3.043-1.553-4.384-0.472c-0.174,0.14-0.333,0.298-0.473,0.472
		c-0.448-0.549-0.694-1.235-0.697-1.943c0-0.863-0.7-1.563-1.563-1.563s-1.563,0.7-1.563,1.563c0.002,1.962,0.927,3.81,2.498,4.986
		L0.207,58.266c-0.177,0.879-0.246,1.775-0.204,2.672c0.005,5.175,4.198,9.369,9.373,9.375h17.185
		c5.175-0.006,9.368-4.2,9.373-9.375c0.042-0.896-0.026-1.793-0.204-2.672l-14.008-36.87c1.131-0.85,1.941-2.058,2.298-3.427h21.292
		v48.785l-17.555,6.939c-1.179,0.467-1.959,1.601-1.973,2.869h48.432c-0.014-1.269-0.794-2.402-1.974-2.869l-17.555-6.939V17.969
		h21.291c0.357,1.369,1.168,2.577,2.299,3.427L64.27,58.266c-0.178,0.879-0.246,1.775-0.203,2.672
		c0.005,5.175,4.197,9.369,9.373,9.375h17.184c5.176-0.006,9.368-4.2,9.373-9.375C100.039,60.041,99.971,59.145,99.793,58.266z
		 M32.81,59.375H21.131h-6.325H3.128l13.976-36.786c0.574,0.088,1.157,0.089,1.731,0.002L32.81,59.375z M67.19,59.375l13.976-36.784
		c0.573,0.087,1.156,0.086,1.73-0.002l13.976,36.786H67.19z"/>
</g>
<path d="M17.424,35.647c-0.64,0.01-1.152,0.534-1.148,1.174v1.424c-3.199,0.35-4.598,2.273-4.598,4.498
	c0,6.022,9.119,4.348,9.119,7.996c0,1.55-1.099,2.299-3.373,2.299c-1.568-0.046-3.049-0.731-4.098-1.899
	c-0.268-0.336-0.67-0.536-1.099-0.55c-0.743,0.011-1.335,0.622-1.325,1.364c0.004,0.242,0.073,0.479,0.2,0.686
	c1.21,1.695,3.099,2.78,5.173,2.973v1.399c-0.008,0.642,0.507,1.167,1.148,1.175c0.643,0.006,1.168-0.508,1.175-1.15
	c0-0.008,0-0.016,0-0.024v-1.399c3.348-0.324,5.097-2.123,5.097-4.872c0-6.246-9.119-4.723-9.119-7.996c0-1,0.773-1.974,2.848-1.974
	c1.291-0.012,2.539,0.461,3.498,1.324c0.276,0.312,0.66,0.508,1.074,0.549c0.738,0.006,1.342-0.586,1.35-1.324
	c-0.002-0.285-0.09-0.563-0.25-0.8c-1.129-1.333-2.754-2.145-4.497-2.248v-1.45c0.001-0.648-0.524-1.174-1.173-1.174
	C17.426,35.647,17.426,35.647,17.424,35.647z"/>
</svg>
