<?xml version="1.0" encoding="utf-8"?>
<!-- Generator: Adobe Illustrator 16.0.0, SVG Export Plug-In . SVG Version: 6.00 Build 0)  -->
<!DOCTYPE svg PUBLIC "-//W3C//DTD SVG 1.1//EN" "http://www.w3.org/Graphics/SVG/1.1/DTD/svg11.dtd">
<svg version="1.1" id="selection" xmlns="http://www.w3.org/2000/svg" xmlns:xlink="http://www.w3.org/1999/xlink" x="0px" y="0px"
	 width="100px" height="100px" viewBox="0 0 100 100" enable-background="new 0 0 100 100" xml:space="preserve">
<g transform="translate(3.75 12)">
	<path id="a" d="M23.438,75h12.5v12.5h-12.5V75z"/>
</g>
<path d="M-1.563,81.25c0,3.451,2.798,6.25,6.25,6.25h6.25V75h-12.5V81.25z"/>
<g transform="translate(-.25 8)">
	<path id="a_1_" d="M-1.563,50h12.5v12.5h-12.5V50z"/>
</g>
<g transform="translate(-.25 4)">
	<path id="a_2_" d="M-1.563,25h12.5v12.5h-12.5V25z"/>
</g>
<path d="M-1.563,6.25v6.25h12.5V0h-6.25C1.236,0-1.563,2.798-1.563,6.25z"/>
<g transform="translate(3.75)">
	<path id="a_3_" d="M23.438,0h12.5v12.5h-12.5V0z"/>
</g>
<g transform="translate(7.75)">
	<path id="a_4_" d="M48.438,0h12.5v12.5h-12.5V0z"/>
</g>
<path d="M85.938,6.25c0-3.452-2.799-6.25-6.25-6.25h-6.25v12.5h12.5V6.25z"/>
<g transform="translate(11.75 4)">
	<path id="a_5_" d="M73.438,25h12.5v12.5h-12.5V25z"/>
</g>
<path d="M85.755,45.954c0.344,0.829,0.202,1.537-0.426,2.124L70.368,63.039v22.519c0,0.85-0.395,1.446-1.184,1.791
	c-0.264,0.101-0.516,0.151-0.759,0.151c-0.546,0-1.002-0.192-1.366-0.577l-7.769-7.769c-0.385-0.385-0.576-0.84-0.576-1.366V63.039
	L43.753,48.078c-0.627-0.587-0.769-1.295-0.425-2.124c0.344-0.789,0.94-1.184,1.79-1.184h38.846
	C84.813,44.771,85.41,45.165,85.755,45.954z"/>
</svg>
