<svg xmlns="http://www.w3.org/2000/svg" viewBox="0 0 64 64" id="wood"><path d="M57.52 39.35A6 6 0 0 0 52 31h-.54a5.91 5.91 0 0 0 1-1.55l.05-.1A6 6 0 0 0 47 21H17a6 6 0 0 0-4.46 10H12a6 6 0 0 0 0 12h40a6 6 0 0 0 5.47-3.55ZM47 23a4 4 0 0 1 4 4 4.09 4.09 0 0 1-.14 1H46a1 1 0 0 0 0 2h3.62A4 4 0 0 1 47 31H21.47v-.06a5.75 5.75 0 0 0 .56-.74l.08-.13a6.11 6.11 0 0 0 .42-.85s0-.08 0-.12a6.11 6.11 0 0 0 .28-1s0-.06 0-.09A6.14 6.14 0 0 0 23 27a6.64 6.64 0 0 0-.09-1H27a1 1 0 0 0 0-2h-4.81a.25.25 0 0 1 0-.07l-.08-.13a5.75 5.75 0 0 0-.56-.74V23ZM26 37a4 4 0 1 1-4-4 4 4 0 0 1 4 4Zm-9.48-3.93-.05-.07h1.06l-.05.07a5.39 5.39 0 0 0-.47.6 5.39 5.39 0 0 0-.49-.6ZM13 27a4 4 0 1 1 4 4 4 4 0 0 1-4-4ZM8 37a4 4 0 1 1 4 4 4 4 0 0 1-4-4Zm8.47 4 .05-.07a5.39 5.39 0 0 0 .47-.6 5.39 5.39 0 0 0 .47.6l.05.07Zm10 0v-.06a5.75 5.75 0 0 0 .56-.74l.08-.13a6.11 6.11 0 0 0 .42-.85s0-.08 0-.12a6.11 6.11 0 0 0 .28-1s0-.06 0-.09A6.14 6.14 0 0 0 28 37a6.64 6.64 0 0 0-.09-1H32a1 1 0 0 0 0-2h-4.81a.25.25 0 0 1 0-.07l-.08-.13a5.75 5.75 0 0 0-.56-.74V33H52a4 4 0 0 1 4 4 4.09 4.09 0 0 1-.14 1H51a1 1 0 0 0 0 2h3.62A4 4 0 0 1 52 41ZM50 35a1 1 0 0 1-1 1h-3a1 1 0 0 1 0-2h3a1 1 0 0 1 1 1ZM40 25a1 1 0 0 1 1-1h3a1 1 0 0 1 0 2h-3a1 1 0 0 1-1-1Z"></path></svg>