<?xml version="1.0" encoding="utf-8"?>
<!-- Generator: Adobe Illustrator 16.0.0, SVG Export Plug-In . SVG Version: 6.00 Build 0)  -->
<!DOCTYPE svg PUBLIC "-//W3C//DTD SVG 1.1//EN" "http://www.w3.org/Graphics/SVG/1.1/DTD/svg11.dtd">
<svg version="1.1" id="invoice" xmlns="http://www.w3.org/2000/svg" xmlns:xlink="http://www.w3.org/1999/xlink" x="0px" y="0px"
	 width="100px" height="100px" viewBox="0 0 100 100" enable-background="new 0 0 100 100" xml:space="preserve">
<path d="M87.5,6.25c-3.451,0-6.25,2.798-6.25,6.25v6.25h12.5V12.5C93.75,9.048,90.951,6.25,87.5,6.25z"/>
<path d="M14.583,2.083c-4.603,0-8.333,3.731-8.333,8.333v87.5h70.834v-87.5c0-4.602,3.73-8.333,8.332-8.333H14.583z M64.584,87.5
	H18.75c-1.15,0-2.083-0.934-2.083-2.084s0.933-2.082,2.083-2.082h45.834c1.15,0,2.082,0.932,2.082,2.082S65.734,87.5,64.584,87.5z
	 M64.584,77.084H18.75c-1.15,0-2.083-0.934-2.083-2.084s0.933-2.084,2.083-2.084h45.834c1.15,0,2.082,0.934,2.082,2.084
	S65.734,77.084,64.584,77.084z M64.584,66.666H18.75c-1.15,0-2.083-0.932-2.083-2.082S17.6,62.5,18.75,62.5h45.834
	c1.15,0,2.082,0.934,2.082,2.084S65.734,66.666,64.584,66.666z"/>
<rect x="22.38" y="8.001" fill="none" width="40.251" height="25"/>
<g>
	<path fill="#FFFFFF" stroke="#FFFFFF" stroke-width="4" stroke-miterlimit="10" d="M95.963,44.437
		c0,8.969-7.27,16.237-16.236,16.237H76.57c-8.967,0-16.236-7.268-16.236-16.237v-3.154c0-8.969,7.27-16.237,16.236-16.237h3.156
		c8.967,0,16.235,7.269,16.235,16.237L95.963,44.437L95.963,44.437z"/>
	<g>
		<g>
			<path fill="none" stroke="#231F20" stroke-width="4" stroke-miterlimit="10" d="M86.741,57.793
				C72.85,62.908,61.578,53.5,61.631,44.322v-2.926c0-8.314,6.74-15.055,15.055-15.055h2.926c6.822,0,12.584,4.537,14.434,10.759"/>
			<g>
				<path fill="#231F20" d="M94.666,44.322c-1.62-3.254-4.215-7.229-6.766-9.592l5.895,1.445l5.453-2.659
					C97.255,36.366,95.561,40.799,94.666,44.322z"/>
			</g>
		</g>
	</g>
	
		<line fill="none" stroke="#231F20" stroke-width="4" stroke-linecap="round" stroke-miterlimit="10" x1="78.148" y1="42.859" x2="78.148" y2="30.859"/>
	
		<line fill="none" stroke="#231F20" stroke-width="4" stroke-linecap="round" stroke-miterlimit="10" x1="78.148" y1="42.859" x2="86.741" y2="42.859"/>
</g>
<rect x="12" y="5" fill="none" width="60.963" height="24.999"/>
<text transform="matrix(1 0 0 1 12 29.1396)" fill="#FFFFFF" stroke="#FFFFFF" stroke-miterlimit="10" font-family="'MyriadPro-Regular'" font-size="34">CHF</text>
</svg>
