<?xml version="1.0" encoding="utf-8"?>
<!-- Generator: Adobe Illustrator 16.0.0, SVG Export Plug-In . SVG Version: 6.00 Build 0)  -->
<!DOCTYPE svg PUBLIC "-//W3C//DTD SVG 1.1//EN" "http://www.w3.org/Graphics/SVG/1.1/DTD/svg11.dtd">
<svg version="1.1" id="insert" xmlns="http://www.w3.org/2000/svg" xmlns:xlink="http://www.w3.org/1999/xlink" x="0px" y="0px"
	 width="512px" height="512px" viewBox="0 0 512 512" enable-background="new 0 0 512 512" xml:space="preserve">
<g>
	<g>
		
			<line fill="none" stroke="#969696" stroke-width="18" stroke-linecap="round" stroke-linejoin="round" x1="251.76" y1="353.257" x2="251.605" y2="365.756"/>
		
			<line fill="none" stroke="#969696" stroke-width="18" stroke-linecap="round" stroke-linejoin="round" stroke-dasharray="32.1746,32.1746" x1="251.208" y1="397.928" x2="250.613" y2="446.188"/>
		
			<line fill="none" stroke="#969696" stroke-width="18" stroke-linecap="round" stroke-linejoin="round" x1="250.414" y1="462.272" x2="250.26" y2="474.771"/>
	</g>
</g>
<line fill="none" stroke="#000000" stroke-width="20" stroke-linecap="round" stroke-linejoin="round" stroke-miterlimit="10" x1="39.76" y1="338.257" x2="463.76" y2="368.257"/>
<line fill="none" stroke="#000000" stroke-width="20" stroke-linecap="round" stroke-linejoin="round" stroke-miterlimit="10" x1="39.76" y1="489.665" x2="463.76" y2="459.665"/>
<line fill="none" stroke="#000000" stroke-width="20" stroke-linecap="round" stroke-linejoin="round" stroke-miterlimit="10" x1="39.76" y1="338.257" x2="39.76" y2="489.665"/>
<line fill="none" stroke="#000000" stroke-width="20" stroke-linecap="round" stroke-linejoin="round" stroke-miterlimit="10" x1="463.76" y1="368.257" x2="463.76" y2="459.665"/>
<line fill="none" stroke="#000000" stroke-width="20" stroke-linecap="round" stroke-linejoin="round" stroke-miterlimit="10" x1="39.76" y1="15.879" x2="463.76" y2="36.962"/>
<line fill="none" stroke="#000000" stroke-width="20" stroke-linecap="round" stroke-linejoin="round" stroke-miterlimit="10" x1="39.76" y1="122.287" x2="463.76" y2="101.204"/>
<line fill="none" stroke="#000000" stroke-width="20" stroke-linecap="round" stroke-linejoin="round" stroke-miterlimit="10" x1="39.76" y1="15.879" x2="39.76" y2="122.287"/>
<line fill="none" stroke="#000000" stroke-width="20" stroke-linecap="round" stroke-linejoin="round" stroke-miterlimit="10" x1="463.76" y1="36.962" x2="463.76" y2="101.204"/>
<g>
	<path stroke="#000000" stroke-width="3" stroke-miterlimit="10" d="M90.86,263.58L72.064,320.5H47.899l61.489-180.977h28.194
		L199.337,320.5h-24.971l-19.332-56.92H90.86L90.86,263.58z M150.201,245.318l-17.721-52.094
		c-4.029-11.813-6.713-22.552-9.399-33.027h-0.537c-2.684,10.743-5.639,21.748-9.129,32.758l-17.721,52.358h54.508V245.318z"/>
</g>
<g>
	<path fill="none" d="M250.26,111.82"/>
</g>
<g>
	<path stroke="#000000" stroke-width="3" stroke-miterlimit="10" d="M330.316,144.172c9.937-2.093,25.636-3.663,41.589-3.663
		c22.758,0,37.408,3.923,48.396,12.817c9.156,6.802,14.649,17.264,14.649,31.128c0,17.006-11.248,31.914-29.82,38.72v0.52
		c16.741,4.189,36.359,18.054,36.359,44.214c0,15.173-6.019,26.68-14.909,35.312c-12.3,11.25-32.178,16.479-60.956,16.479
		c-15.69,0-27.728-1.043-35.31-2.093V144.172H330.316z M353.074,216.369h20.666c24.067,0,38.192-12.557,38.192-29.558
		c0-20.666-15.696-28.775-38.718-28.775c-10.465,0-16.478,0.785-20.141,1.57V216.369z M353.074,300.864
		c4.445,0.785,10.984,1.049,19.095,1.049c23.549,0,45.26-8.632,45.26-34.27c0-24.064-20.665-34.008-45.518-34.008h-18.833v67.229
		H353.074z"/>
</g>
<g>
	<g>
		
			<line fill="none" stroke="#969696" stroke-width="20" stroke-miterlimit="10" x1="250.26" y1="111.746" x2="250.26" y2="260.148"/>
		<g>
			<path fill="#969696" d="M250.26,320.5c-10.537-28.398-28.516-63.633-47.559-85.474l47.559,17.202l47.549-17.202
				C278.766,256.867,260.787,292.102,250.26,320.5z"/>
		</g>
	</g>
</g>
</svg>
