<svg xmlns="http://www.w3.org/2000/svg" enable-background="new 0 0 512 512" viewBox="0 0 512 512" id="pdf"><path d="M371,451H81c-5.523,0-10-4.478-10-10V11c0-5.523,4.477-10,10-10h220c2.652,0,5.195,1.054,7.071,2.929
				l70,70C379.946,75.804,381,78.348,381,81v120c0,5.523-4.478,10-10,10s-10-4.477-10-10V85.142L296.857,21H91v410h270v-50
				c0-5.522,4.478-10,10-10s10,4.478,10,10v60C381,446.522,376.522,451,371,451z"></path><path d="M301 511H21c-5.523 0-10-4.478-10-10V91c0-5.523 4.477-10 10-10h60c5.523 0 10 4.477 10 10s-4.477 10-10 10H31v390h260v-50c0-5.522 4.478-10 10-10s10 4.478 10 10v60C311 506.522 306.522 511 301 511zM371 91h-70c-5.522 0-10-4.477-10-10V11c0-5.523 4.478-10 10-10s10 4.477 10 10v60h60c5.522 0 10 4.477 10 10S376.522 91 371 91z"></path><path d="M491,391H181c-5.523,0-10-4.478-10-10V201c0-5.523,4.477-10,10-10h310c5.522,0,10,4.477,10,10v180
				C501,386.522,496.522,391,491,391z M191,371h290V211H191V371z"></path><path d="M221 351c-5.523 0-10-4.478-10-10V241c0-5.523 4.477-10 10-10h25c19.299 0 35 15.701 35 35 0 19.299-15.701 35-35 35h-15v40C231 346.522 226.523 351 221 351zM231 281h15c8.271 0 15-6.729 15-15s-6.729-15-15-15h-15V281zM328 351h-17c-5.522 0-10-4.478-10-10V241c0-5.523 4.478-10 10-10h17c29.225 0 53 23.776 53 53v14C381 327.225 357.225 351 328 351zM321 331h7c18.196 0 33-14.804 33-33v-14c0-18.196-14.804-33-33-33h-7V331zM411 351c-5.522 0-10-4.478-10-10V241c0-5.523 4.478-10 10-10h40c5.522 0 10 4.477 10 10s-4.478 10-10 10h-30v90C421 346.522 416.522 351 411 351z"></path><path d="M441 301h-30c-5.522 0-10-4.478-10-10s4.478-10 10-10h30c5.522 0 10 4.478 10 10S446.522 301 441 301zM331 171H121c-5.523 0-10-4.477-10-10s4.477-10 10-10h210c5.522 0 10 4.477 10 10S336.522 171 331 171zM331 131H121c-5.523 0-10-4.477-10-10s4.477-10 10-10h210c5.522 0 10 4.477 10 10S336.522 131 331 131zM221 91H121c-5.523 0-10-4.477-10-10s4.477-10 10-10h100c5.523 0 10 4.477 10 10S226.523 91 221 91z"></path></svg>