<?xml version="1.0" encoding="utf-8"?>
<!-- Generator: Adobe Illustrator 16.0.0, SVG Export Plug-In . SVG Version: 6.00 Build 0)  -->
<!DOCTYPE svg PUBLIC "-//W3C//DTD SVG 1.1//EN" "http://www.w3.org/Graphics/SVG/1.1/DTD/svg11.dtd">
<svg version="1.1" id="pdf" xmlns="http://www.w3.org/2000/svg" xmlns:xlink="http://www.w3.org/1999/xlink" x="0px" y="0px"
	 width="100px" height="100px" viewBox="0 0 100 100" enable-background="new 0 0 100 100" xml:space="preserve">
<path d="M72.461,88.086H15.82c-1.079,0-1.953-0.875-1.953-1.953V2.148c0-1.079,0.875-1.953,1.953-1.953h42.969
	c0.518,0,1.015,0.206,1.381,0.572l13.672,13.672c0.366,0.366,0.572,0.863,0.572,1.381v23.438c0,1.079-0.875,1.953-1.953,1.953
	s-1.953-0.875-1.953-1.953V16.629L57.98,4.102H17.773V84.18h52.734v-9.766c0-1.078,0.875-1.953,1.953-1.953s1.953,0.875,1.953,1.953
	v11.719C74.414,87.211,73.539,88.086,72.461,88.086z"/>
<path d="M58.789,99.805H4.102c-1.079,0-1.953-0.875-1.953-1.953V17.773c0-1.079,0.875-1.953,1.953-1.953H15.82
	c1.079,0,1.953,0.875,1.953,1.953s-0.875,1.953-1.953,1.953H6.055v76.172h50.781v-9.766c0-1.078,0.875-1.953,1.953-1.953
	s1.953,0.875,1.953,1.953v11.719C60.742,98.93,59.867,99.805,58.789,99.805z M72.461,17.773H58.789
	c-1.078,0-1.953-0.875-1.953-1.953V2.148c0-1.079,0.875-1.953,1.953-1.953s1.953,0.875,1.953,1.953v11.719h11.719
	c1.078,0,1.953,0.875,1.953,1.953S73.539,17.773,72.461,17.773z"/>
<path d="M95.898,76.367H35.352c-1.079,0-1.953-0.875-1.953-1.953V39.258c0-1.079,0.875-1.953,1.953-1.953h60.547
	c1.078,0,1.953,0.875,1.953,1.953v35.156C97.852,75.492,96.977,76.367,95.898,76.367z M37.305,72.461h56.641v-31.25H37.305V72.461z"
	/>
<path d="M43.164,68.555c-1.079,0-1.953-0.875-1.953-1.953V47.07c0-1.079,0.875-1.953,1.953-1.953h4.883
	c3.77,0,6.836,3.066,6.836,6.836s-3.066,6.836-6.836,6.836h-2.93v7.813C45.117,67.68,44.243,68.555,43.164,68.555z M45.117,54.883
	h2.93c1.615,0,2.93-1.314,2.93-2.93s-1.314-2.93-2.93-2.93h-2.93V54.883z M64.063,68.555h-3.32c-1.078,0-1.953-0.875-1.953-1.953
	V47.07c0-1.079,0.875-1.953,1.953-1.953h3.32c5.708,0,10.352,4.644,10.352,10.352v2.734C74.414,63.911,69.771,68.555,64.063,68.555z
	 M62.695,64.648h1.367c3.554,0,6.445-2.892,6.445-6.445v-2.734c0-3.554-2.892-6.445-6.445-6.445h-1.367V64.648z M80.273,68.555
	c-1.078,0-1.953-0.875-1.953-1.953V47.07c0-1.079,0.875-1.953,1.953-1.953h7.813c1.078,0,1.953,0.875,1.953,1.953
	s-0.875,1.953-1.953,1.953h-5.859v17.578C82.227,67.68,81.352,68.555,80.273,68.555z"/>
<path d="M86.133,58.789h-5.859c-1.078,0-1.953-0.875-1.953-1.953s0.875-1.953,1.953-1.953h5.859c1.078,0,1.953,0.875,1.953,1.953
	S87.211,58.789,86.133,58.789z M64.648,33.398H23.633c-1.079,0-1.953-0.875-1.953-1.953s0.875-1.953,1.953-1.953h41.016
	c1.078,0,1.953,0.875,1.953,1.953S65.727,33.398,64.648,33.398z M64.648,25.586H23.633c-1.079,0-1.953-0.875-1.953-1.953
	s0.875-1.953,1.953-1.953h41.016c1.078,0,1.953,0.875,1.953,1.953S65.727,25.586,64.648,25.586z M43.164,17.773H23.633
	c-1.079,0-1.953-0.875-1.953-1.953s0.875-1.953,1.953-1.953h19.531c1.079,0,1.953,0.875,1.953,1.953S44.243,17.773,43.164,17.773z"
	/>
<g>
	<path fill="#FFFFFF" stroke="#FFFFFF" stroke-width="4" stroke-miterlimit="10" d="M37.628,21.391
		c0,8.97-7.268,16.237-16.235,16.237h-3.157C9.269,37.628,2,30.361,2,21.391v-3.154C2,9.269,9.269,2,18.235,2h3.157
		c8.967,0,16.235,7.269,16.235,16.237V21.391z"/>
	<g>
		<g>
			<path fill="none" stroke="#231F20" stroke-width="4" stroke-miterlimit="10" d="M28.407,34.748
				c-13.892,5.115-25.164-4.293-25.11-13.471V18.35c0-8.314,6.74-15.054,15.054-15.054h2.926c6.823,0,12.584,4.538,14.433,10.759"/>
			<g>
				<path fill="#231F20" d="M36.331,21.277c-1.62-3.254-4.214-7.229-6.765-9.592l5.894,1.446l5.454-2.659
					C38.92,13.32,37.225,17.754,36.331,21.277z"/>
			</g>
		</g>
	</g>
	
		<line fill="none" stroke="#231F20" stroke-width="4" stroke-linecap="round" stroke-miterlimit="10" x1="19.814" y1="19.814" x2="19.814" y2="7.814"/>
	
		<line fill="none" stroke="#231F20" stroke-width="4" stroke-linecap="round" stroke-miterlimit="10" x1="19.814" y1="19.814" x2="28.407" y2="19.814"/>
</g>
</svg>
